<mxfile host="app.diagrams.net" modified="2020-08-03T21:23:32.128Z" agent="5.0 (Windows NT 10.0; Win64; x64) AppleWebKit/537.36 (KHTML, like Gecko) Chrome/84.0.4147.105 Safari/537.36" etag="1S1H7tmiVLVIXaxaLM9o" version="13.5.9" type="github">
  <diagram name="Page-1" id="e7e014a7-5840-1c2e-5031-d8a46d1fe8dd">
    <mxGraphModel dx="868" dy="401" grid="1" gridSize="10" guides="1" tooltips="1" connect="1" arrows="1" fold="1" page="1" pageScale="1" pageWidth="1169" pageHeight="826" background="#ffffff" math="0" shadow="0">
      <root>
        <mxCell id="0" />
        <mxCell id="1" parent="0" />
        <mxCell id="r-yJYnl1OP3CYbjC2gjN-41" value="Actor" style="shape=umlActor;verticalLabelPosition=bottom;verticalAlign=top;html=1;" vertex="1" parent="1">
          <mxGeometry x="220" y="40" width="30" height="60" as="geometry" />
        </mxCell>
        <mxCell id="r-yJYnl1OP3CYbjC2gjN-42" value="Non-Employee" style="text;html=1;align=center;verticalAlign=middle;resizable=0;points=[];autosize=1;" vertex="1" parent="1">
          <mxGeometry x="185" y="120" width="90" height="20" as="geometry" />
        </mxCell>
        <mxCell id="r-yJYnl1OP3CYbjC2gjN-43" value="Actor" style="shape=umlActor;verticalLabelPosition=bottom;verticalAlign=top;html=1;" vertex="1" parent="1">
          <mxGeometry x="215" y="180" width="30" height="60" as="geometry" />
        </mxCell>
        <mxCell id="r-yJYnl1OP3CYbjC2gjN-46" value="Employee" style="text;html=1;align=center;verticalAlign=middle;resizable=0;points=[];autosize=1;" vertex="1" parent="1">
          <mxGeometry x="195" y="260" width="70" height="20" as="geometry" />
        </mxCell>
        <mxCell id="r-yJYnl1OP3CYbjC2gjN-47" value="" style="html=1;" vertex="1" parent="1">
          <mxGeometry x="330" y="40" width="180" height="480" as="geometry" />
        </mxCell>
        <mxCell id="r-yJYnl1OP3CYbjC2gjN-48" value="View Clock-in" style="ellipse;whiteSpace=wrap;html=1;" vertex="1" parent="1">
          <mxGeometry x="350" y="60" width="140" height="70" as="geometry" />
        </mxCell>
        <mxCell id="r-yJYnl1OP3CYbjC2gjN-49" value="Clock In" style="ellipse;whiteSpace=wrap;html=1;" vertex="1" parent="1">
          <mxGeometry x="350" y="150" width="140" height="70" as="geometry" />
        </mxCell>
        <mxCell id="r-yJYnl1OP3CYbjC2gjN-50" value="Clock Out" style="ellipse;whiteSpace=wrap;html=1;" vertex="1" parent="1">
          <mxGeometry x="350" y="240" width="140" height="70" as="geometry" />
        </mxCell>
        <mxCell id="r-yJYnl1OP3CYbjC2gjN-51" value="Validate Clock In" style="ellipse;whiteSpace=wrap;html=1;" vertex="1" parent="1">
          <mxGeometry x="350" y="330" width="140" height="70" as="geometry" />
        </mxCell>
        <mxCell id="r-yJYnl1OP3CYbjC2gjN-52" value="Get Hired" style="ellipse;whiteSpace=wrap;html=1;" vertex="1" parent="1">
          <mxGeometry x="350" y="420" width="140" height="70" as="geometry" />
        </mxCell>
      </root>
    </mxGraphModel>
  </diagram>
</mxfile>
